<?xml version="1.0" encoding="UTF-8" standalone="no"?>
<!-- Created with Inkscape (http://www.inkscape.org/) -->

<svg
   width="211.93219mm"
   height="207.22971mm"
   viewBox="0 0 211.93219 207.22971"
   version="1.1"
   id="svg1"
   xml:space="preserve"
   xmlns="http://www.w3.org/2000/svg"
   xmlns:svg="http://www.w3.org/2000/svg"><defs
     id="defs1" /><g
     id="layer1"
     transform="translate(-122.39437,-409.95944)"><path
       d="m 197.51308,617.11084 c -4.07461,-0.74106 -7.63183,-2.18266 -10.90693,-4.42015 -1.67565,-1.14477 -10.57185,-8.19673 -11.65915,-9.24213 -0.31028,-0.29833 -2.17198,-1.81478 -4.13711,-3.36988 -1.96513,-1.55511 -3.65759,-2.92867 -3.76102,-3.05238 -0.16366,-0.19573 -8.24177,-6.92452 -9.77863,-8.14525 -2.1724,-1.72554 -9.7308,-7.96094 -10.34279,-8.53241 -0.41371,-0.38633 -1.34456,-1.15058 -2.06856,-1.69835 -0.72399,-0.54776 -1.49797,-1.16518 -1.71995,-1.37204 -0.22198,-0.20685 -1.04499,-0.88384 -1.82891,-1.5044 -0.78391,-0.62057 -1.72233,-1.38218 -2.08538,-1.69246 -0.36304,-0.31028 -2.70124,-2.30527 -5.19601,-4.43331 -6.509,-5.55217 -9.95108,-9.73306 -10.75901,-13.06831 -1.69756,-7.00774 -0.87393,-14.8985 2.02038,-19.35631 0.95492,-1.47077 3.39653,-5.67681 3.39653,-5.85104 0,-0.10794 1.14057,-1.92435 2.5346,-4.03646 2.80097,-4.24377 3.14397,-4.79786 4.05436,-6.54964 0.34444,-0.66277 0.86453,-1.40278 1.15576,-1.64448 0.29123,-0.2417 0.52951,-0.56869 0.52951,-0.72665 0,-0.15795 0.65809,-1.27964 1.46244,-2.49263 0.80434,-1.21299 1.78439,-2.7978 2.17789,-3.52179 0.39349,-0.724 1.55411,-2.5857 2.57914,-4.13712 1.02504,-1.55142 1.9933,-3.07463 2.1517,-3.38491 0.15839,-0.31029 0.62263,-1.07189 1.03163,-1.69246 0.40901,-0.62057 0.8628,-1.38217 1.00844,-1.69245 0.36276,-0.77288 5.49365,-9.16868 5.74614,-9.40254 0.28944,-0.26809 0.98517,-1.44344 1.94798,-3.29088 0.45817,-0.87914 0.97228,-1.59843 1.14247,-1.59843 0.17019,0 0.30944,-0.16077 0.30944,-0.35725 0,-0.19649 0.50773,-1.10957 1.1283,-2.02908 0.62057,-0.9195 1.1283,-1.74736 1.1283,-1.83968 0,-0.0923 0.93086,-1.59082 2.06856,-3.32999 1.13771,-1.73917 2.06856,-3.35313 2.06856,-3.58658 0,-0.23346 0.23828,-0.62222 0.52951,-0.86392 0.29123,-0.2417 0.80651,-0.98171 1.14506,-1.64448 0.33856,-0.66277 0.94464,-1.71277 1.34686,-2.33333 0.40221,-0.62057 0.84775,-1.38218 0.99008,-1.69246 0.14234,-0.31028 0.36441,-0.64877 0.49351,-0.7522 0.18392,-0.14736 4.4971,-7.0501 7.63772,-12.2233 0.25116,-0.41371 0.54993,-0.83682 0.66394,-0.94025 0.11401,-0.10343 1.80646,-2.78542 3.76101,-5.95999 1.95455,-3.17456 3.84805,-6.22098 4.20777,-6.76982 0.35972,-0.54884 0.76806,-1.25176 0.90743,-1.56204 0.13936,-0.31029 0.60665,-1.06838 1.03842,-1.68466 0.92099,-1.31457 1.59382,-2.41793 1.9542,-3.20466 0.53291,-1.1634 2.08276,-3.00881 2.52691,-3.00881 0.51308,0 4.19657,2.86426 7.96804,6.19591 1.3586,1.20015 2.92874,2.53307 3.4892,2.96202 0.56047,0.42896 2.28838,1.87925 3.83979,3.22288 1.55142,1.34362 3.13703,2.70408 3.52357,3.02323 1.15052,0.94991 9.73582,8.28813 10.95634,9.36484 0.62056,0.54744 2.14262,1.84129 3.38234,2.87521 1.23972,1.03393 2.44464,2.04911 2.6776,2.25597 0.23295,0.20685 1.31257,1.12816 2.39916,2.04736 1.08658,0.91919 2.16648,1.85004 2.39977,2.06855 0.23329,0.21852 1.52426,1.3271 2.86883,2.46352 1.34456,1.13642 2.52928,2.16086 2.63271,2.27654 0.10342,0.11567 1.28814,1.11473 2.6327,2.22013 1.34457,1.1054 2.78315,2.36855 3.19687,2.807 0.41371,0.43845 3.21874,2.82536 6.2334,5.30423 3.01467,2.47888 7.10981,5.94564 9.10032,7.70392 l 3.61911,3.19686 0.011,7.89813 c 0.006,4.34397 -0.14515,8.57511 -0.33594,9.40253 -0.51024,2.21288 -1.51523,11.22236 -1.51523,13.58368 0,3.57624 2.70964,8.37053 5.81586,10.29029 5.00031,3.09035 10.97068,2.22625 14.93479,-2.16155 0.75749,-0.83845 1.5858,-1.92022 1.84069,-2.40395 0.52572,-0.99767 1.1243,-1.47491 1.53305,-1.22229 0.15283,0.0944 0.2922,4.58983 0.3097,9.98972 l 0.0318,9.81798 -3.68763,3.61914 c -2.02819,1.99053 -5.12128,4.91175 -6.87352,6.4916 -1.75223,1.57985 -4.56054,4.20896 -6.24068,5.84246 -1.68014,1.6335 -3.71109,3.53616 -4.51322,4.22813 -1.20211,1.03703 -5.99,5.45091 -11.05037,10.18719 -0.55253,0.51714 -2.00947,1.8711 -3.23765,3.00881 -1.22818,1.13771 -4.49327,4.18033 -7.25575,6.76138 -2.76248,2.58106 -5.70979,5.28899 -6.54959,6.01763 -0.83979,0.72863 -2.32176,2.0864 -3.29326,3.01725 -0.9715,0.93085 -2.42038,2.27578 -3.21974,2.98873 -0.79936,0.71296 -3.23046,2.92608 -5.40245,4.91805 -9.98245,9.15512 -13.56497,11.17529 -20.30947,11.45246 -1.96513,0.0807 -3.99608,0.0699 -4.51322,-0.0242 z m 113.34367,-4.63529 c -3.34625,-0.83792 -5.87824,-4.17194 -6.30796,-8.30605 -0.28637,-2.75505 0.59184,-11.50604 1.58525,-15.79626 1.3613,-5.87903 1.64341,-10.27057 1.47382,-22.94218 -0.17391,-12.99483 -0.34278,-14.53851 -1.92518,-17.59854 -0.82686,-1.59896 -2.37669,-2.71093 -3.77841,-2.71093 -1.55643,0 -3.235,1.79047 -4.05485,4.32516 -1.55961,4.82177 -1.53542,18.13574 0.0402,22.12044 0.23025,0.58232 0.41864,1.54181 0.41864,2.13221 0,0.59039 0.27469,2.1449 0.61042,3.45445 0.65264,2.54571 0.525,7.22561 -0.21731,7.96792 -0.21621,0.21621 -0.39311,0.62441 -0.39311,0.90713 0,0.90379 -2.01306,3.19031 -3.27179,3.71624 -3.84994,1.60861 -8.47877,-0.84372 -9.33353,-4.94486 -0.62129,-2.98098 -0.32428,-7.40435 0.75761,-11.28304 0.2885,-1.03428 0.69797,-2.81136 0.90994,-3.94907 0.21197,-1.1377 0.63643,-3.3379 0.94325,-4.88931 0.66873,-3.38149 1.34248,-13.03999 1.34864,-19.33357 0.006,-5.69476 -0.64831,-19.98778 -1.12003,-24.48224 -2.01689,-19.21644 -2.57194,-21.73566 -5.29349,-24.02569 -1.91634,-1.61249 -4.72306,-1.10201 -5.64902,1.02743 -0.1933,0.44455 -0.4948,1.06214 -0.67,1.37243 -0.1752,0.31028 -0.55044,0.98726 -0.83386,1.5044 -0.68545,1.2507 -0.94127,8.7531 -0.38012,11.14767 2.13599,9.11473 2.31558,11.15059 1.27712,14.47806 -0.79219,2.53839 -1.0894,2.91822 -2.94326,3.76152 -2.26789,1.03164 -4.30419,0.90675 -6.06985,-0.37229 -2.61982,-1.89779 -2.95072,-2.71853 -2.90321,-7.20108 0.023,-2.17198 0.23145,-4.62604 0.46318,-5.45347 1.29168,-4.6121 1.41134,-22.27537 0.20383,-30.08811 -1.24507,-8.0557 -4.14793,-19.54693 -6.79517,-26.89922 -0.89409,-2.48319 -1.06786,-3.37694 -0.65658,-3.37694 0.12458,0 1.09775,0.76033 2.16259,1.68962 4.86752,4.24791 14.13786,11.44077 18.48453,14.34216 3.80027,2.53667 8.11866,4.8801 12.23994,6.64215 3.83956,1.64161 6.4147,2.80869 11.89519,5.39102 1.48354,0.69903 2.80498,1.27096 2.93652,1.27096 0.66282,0 13.73161,6.62305 15.94124,8.07876 2.72305,1.79395 5.9332,4.8187 6.28268,5.91982 0.11685,0.36816 0.33564,0.66937 0.4862,0.66937 0.37684,0 2.5602,4.44354 2.86439,5.82957 1.04182,4.74692 1.16682,9.82003 0.37068,15.04406 -0.76409,5.0137 -1.10178,17.4871 -0.59566,22.00193 0.41551,3.7066 1.04232,6.85307 2.13529,10.71889 0.92003,3.25409 1.09775,7.01539 0.4248,8.99038 -1.3316,3.90803 -4.8356,5.6636 -8.36272,4.18988 -1.56154,-0.65246 -3.55494,-2.7262 -3.55494,-3.69822 0,-0.38121 -0.17907,-1.0277 -0.39793,-1.43665 -0.40228,-0.75167 -0.0335,-4.41427 0.82895,-8.23344 0.21021,-0.93085 0.5213,-2.62331 0.69132,-3.76102 0.17002,-1.1377 0.49074,-2.74554 0.71272,-3.57296 0.58996,-2.19903 0.50882,-7.21475 -0.15843,-9.79364 -1.34637,-5.20368 -4.72964,-5.13718 -5.83847,0.11477 -1.01951,4.82883 -2.02749,17.90731 -1.71951,22.31051 0.13621,1.9474 0.33784,5.74091 0.44807,8.43004 0.11023,2.68912 0.37511,6.24328 0.58863,7.89813 0.21352,1.65484 0.53686,4.23934 0.71853,5.74332 0.18168,1.50398 0.44322,2.91717 0.5812,3.14043 0.13798,0.22325 0.39374,1.36216 0.56836,2.53091 0.17461,1.16874 0.59938,3.39433 0.94391,4.94575 0.34454,1.55142 0.70148,5.13191 0.7932,7.95666 0.1615,4.97392 0.13444,5.20523 -0.85794,7.33398 -1.07532,2.30663 -1.50758,2.83955 -3.36355,4.1468 -1.29877,0.91479 -3.95485,1.33708 -5.68494,0.90385 z M 257.20758,483.15889 c -1.09675,-0.98257 -3.07062,-2.71734 -4.38637,-3.85504 -1.31575,-1.13771 -3.0012,-2.60127 -3.74543,-3.25236 -0.74424,-0.65108 -2.14101,-1.8358 -3.10394,-2.63271 -3.85835,-3.19309 -8.44571,-7.11934 -9.15616,-7.83659 -0.41371,-0.41767 -1.59812,-1.43613 -2.63201,-2.26323 -1.03389,-0.82711 -2.5571,-2.12091 -3.38491,-2.87512 -0.82781,-0.75421 -2.77445,-2.42194 -4.32587,-3.70608 -1.55142,-1.28413 -3.49774,-2.9519 -4.32517,-3.70615 -0.82742,-0.75425 -2.6045,-2.30113 -3.94906,-3.43751 -1.34456,-1.13638 -2.52928,-2.15918 -2.63271,-2.27289 -0.10343,-0.11371 -1.71126,-1.46015 -3.57296,-2.99209 -1.8617,-1.53193 -3.72341,-3.13395 -4.13712,-3.56004 -0.41371,-0.42609 -2.27541,-2.03945 -4.13711,-3.58524 -3.69211,-3.06559 -4.73822,-3.969 -8.44244,-7.29078 -5.32246,-4.77297 -6.41357,-6.351 -6.41357,-9.27578 0,-3.08866 3.07818,-7.54247 6.66606,-9.64511 3.12336,-1.83041 6.90884,-1.15652 10.30321,1.83417 0.54172,0.4773 1.49101,1.29093 2.10952,1.80807 0.61852,0.51714 2.03699,1.72313 3.15216,2.67998 1.11518,0.95684 3.97392,3.38917 6.35276,5.40516 2.37884,2.01599 5.49183,4.69737 6.91775,5.95862 1.42592,1.26125 3.03375,2.63235 3.57296,3.04689 0.53921,0.41453 1.78992,1.51096 2.77936,2.4365 0.98943,0.92554 2.69615,2.36874 3.79269,3.2071 2.00682,1.53431 10.62794,8.6902 11.3383,9.41126 2.08487,2.11628 4.86227,7.34408 7.49893,14.11496 0.36248,0.93085 0.78941,1.95188 0.94873,2.26895 0.15931,0.31708 0.41733,1.15775 0.57336,1.86816 0.15604,0.71042 0.41553,1.55109 0.57665,1.86817 0.16112,0.31707 0.57389,1.67659 0.91728,3.02115 0.34339,1.34456 0.85058,3.20627 1.1271,4.13712 0.6742,2.26956 1.23487,4.6452 1.68648,7.14592 0.20546,1.13771 0.48247,2.44936 0.61558,2.91479 0.37403,1.30786 -0.38157,1.03292 -2.58405,-0.94025 z"
       style="fill:#ea580c"
       id="path1-3" /></g></svg>
